<svg xmlns="http://www.w3.org/2000/svg" width="3339.02" height="644.22" viewBox="0 0 883.449 170.45"><path d="M699.563 169.827l-3.677-1.738c-.145 0-.969-.721-1.831-1.602-1.317-1.346-1.594-1.795-1.733-2.805-.091-.661-.364-1.756-.607-2.433-.631-1.755-.647-9.797-.029-14.459l1.15-8.592c.088-.651.458-2.318.82-3.704s.76-3.235.884-4.109.362-1.946.529-2.381c.321-.835 1.36-4.819 1.724-6.613l.247-1.191c.018-.073.121-.609.229-1.191.37-1.991 2.039-7.119 3.11-9.562.264-.602.563-1.436.665-1.852s.345-.992.542-1.279a2.42 2.42 0 0 0 .357-1.162c0-.352.255-1.189.567-1.859.828-1.782 1.145-2.594 1.82-4.659.333-1.019.896-2.417 1.253-3.107s.666-1.624.687-2.075c.036-.749-.075-.865-1.281-1.345-.726-.289-1.381-.617-1.455-.729s-.397-.342-.717-.511c-.809-.426-2.991-3.323-2.991-3.971 0-.294-.108-.601-.241-.682-.596-.369-1.541-10.581-1.129-12.205.145-.571.279-1.925.298-3.009s.133-2.096.253-2.249.411-1.253.646-2.445.617-2.68.848-3.307c2.052-5.578 2.131-6.036 1.05-6.036-.797 0-4.141-.857-5.958-1.527-4.889-1.803-5.785-2.165-6.683-2.699-1.455-.865-1.676-.649-1.885 1.851-.1 1.194-.356 2.509-.57 2.923s-.507 1.681-.651 2.814-.434 2.895-.645 3.914c-.694 3.356-.956 5.103-1.097 7.309-.076 1.198-.191 2.264-.255 2.367-.24.389-.179 9.688.067 10.182l.98 1.912c.591 1.14.746 1.845.845 3.836.067 1.342.236 3.011.377 3.709.637 3.159-.114 6.617-1.514 6.969-1.987.499-3.073-1.242-3.822-6.122l-.493-3.175c-.258-1.645-.422-18.449-.184-18.835.074-.12.212-1.193.305-2.384s.288-2.56.431-3.041.368-1.782.499-2.889c.287-2.421 1.482-7.872 1.979-9.031.129-.3.065-.512-.183-.607-.234-.09-1.19.615-2.486 1.833-1.158 1.088-2.874 2.573-3.814 3.299s-2.007 1.61-2.37 1.965c-.936.912-4.038 2.191-6.218 2.565-1.891.324-3.982.965-4.55 1.395-.541.409-1.003 3.014-.666 3.753.24.528.201.76-.222 1.298-.295.376-.515 1.064-.515 1.614 0 .527-.179 1.386-.397 1.909s-.397 1.431-.397 2.019-.168 1.675-.374 2.415c-.565 2.036-.95 3.587-1.251 5.04-.149.722-.45 1.658-.669 2.08-.54 1.044-1.047 3.145-1.242 5.143-.355 3.639-3.848 9-6.462 9.919-1.725.606-2.236.585-4.29-.178l-3.969-1.469c-3.059-1.13-6.785-3.404-8.934-5.451-.98-.934-1.96-1.697-2.178-1.697s-.787.238-1.263.528c-1.187.724-1.715.666-2.652-.293-1.355-1.386-1.648-4.417-1.095-11.323.388-4.845 1.613-11.985 2.607-15.204 1.048-3.392 1.735-6.799 1.366-6.772-.249.018-2.139 2.558-2.139 2.875 0 .159-.115.289-.256.289s-.577.655-.969 1.455-.804 1.455-.916 1.455-.286.258-.386.573-.882 1.646-1.738 2.959-1.556 2.538-1.556 2.725-.327.686-.728 1.11-1.085 1.402-1.521 2.173l-1.373 2.348-1.058 1.764c-.264.451-.993 1.522-1.621 2.381-1.201 1.644-3.645 5.322-4.231 6.37-.19.339-.773.944-1.296 1.344a57.2 57.2 0 0 0-1.904 1.539c-1.652 1.406-3.588 2.427-4.961 2.615-1.647.227-2.789-.353-4.727-2.397-.994-1.049-1.437-1.784-1.767-2.934-.668-2.33-.826-4.165-.513-5.978.156-.903.393-2.654.526-3.891.266-2.461 1.405-7.98 1.993-9.657.204-.582.575-1.951.825-3.043s.674-2.52.944-3.175a21.53 21.53 0 0 0 .793-2.381c.167-.655.402-1.429.522-1.72s.404-1.197.629-2.014.589-1.829.808-2.249.399-1.078.4-1.462.376-1.499.834-2.477c.744-1.589.807-1.91.595-3.006-.201-1.042-.339-1.239-.91-1.306-.4-.047-1.097.211-1.72.635a19.37 19.37 0 0 1-2.263 1.28c-1.315.612-4.074 2.842-4.499 3.637-.175.327-.161 1.571.043 3.743.293 3.117.276 3.397-.393 6.675-1.143 5.591-1.382 6.574-1.801 7.399-.22.432-.481 1.349-.581 2.036s-.286 1.315-.414 1.394-.481.826-.785 1.66-1.638 3.672-2.965 6.307c-1.769 3.515-2.787 5.205-3.821 6.35-.775.858-1.417 1.679-1.425 1.824-.016.283-1.765 2.249-2 2.249-.077 0-.771.476-1.542 1.058s-1.562 1.058-1.757 1.058-.871.25-1.501.554c-1.157.56-2.19.58-4.565.088-1.295-.268-4.398-1.893-5.26-2.755-1.373-1.373-2.605-4.806-2.477-6.905.039-.649-.101-1.092-.443-1.402-.479-.434-.542-.405-1.454.661-.524.613-1.028 1.513-1.12 2s-.272.951-.401 1.031-.235.362-.235.627-.309 1.156-.686 1.979-.781 2.118-.897 2.876-.338 1.736-.493 2.172-.42 1.865-.59 3.175-.473 3.053-.674 3.875-.365 1.85-.365 2.285-.17 1.371-.378 2.078-.568 2.24-.8 3.404l-.803 3.836c-.21.946-.573 3.205-.808 5.02s-.476 3.379-.535 3.475-.223.933-.364 1.859c-.533 3.51-1.589 9.309-1.842 10.11-.256.811-.948 4.655-1.175 6.523-.062.509-.298 1.64-.524 2.514-.689 2.659-1.502 6.49-1.502 7.079 0 .306-.11.922-.244 1.369s-.506 1.825-.826 3.061-.757 2.785-.97 3.44-.432 1.369-.486 1.588c-.521 2.119-.987 3.393-1.558 4.256-.373.563-.678 1.201-.678 1.418 0 .559-.929.984-1.719.785-.899-.226-2.381-2.001-2.932-3.513-.362-.993-.464-2.444-.537-7.643-.053-3.815.016-6.696.171-7.104.144-.378.39-2.192.547-4.031s.388-3.536.514-3.771.3-1.069.389-1.855.313-1.667.499-1.958.416-1.244.51-2.117.421-2.54.727-3.704l.912-3.704c.196-.873.659-2.6 1.028-3.836s.674-2.459.678-2.715.554-2.042 1.223-3.969l1.561-4.693c1.037-3.583 2.427-7.335 3.997-10.79.349-.768.635-1.465.635-1.548s.167-.526.371-.984.433-1.072.509-1.363c.145-.552 2.857-6.862 3.315-7.713.145-.269.577-1.312.961-2.318.67-1.759.869-2.532 1.468-5.712.151-.8.45-1.872.664-2.381.513-1.217.904-3.415.637-3.58s-1.653 1.87-2.044 2.993c-.161.462-.519 1.083-.795 1.379s-.663.865-.86 1.263c-.857 1.734-3.068 5.529-3.494 5.999-.256.282-.466.65-.466.816 0 .26-2.75 2.99-4.072 4.042-1.244.99-3.238 1.635-5.056 1.635-1.579 0-2.047-.116-3.175-.784-1.779-1.054-2.363-1.589-2.91-2.667-.254-.501-.621-1.093-.816-1.316-.516-.592-1.695-4.213-1.697-5.216-.002-.941.858-6.336 1.445-9.063.343-1.594.715-2.952 2.022-7.387.547-1.857.648-3.197.239-3.197-.144 0-.442.434-.664.964s-.818 1.542-1.326 2.25-.924 1.381-.924 1.497-.714 1.25-1.586 2.52-1.827 2.782-2.122 3.36-.653 1.051-.796 1.051-.259.149-.259.331c0 .422-5.038 8.111-7.958 12.147-3.351 4.63-7.234 8.431-9.769 9.562-.655.292-2.056 1.286-3.115 2.208-2.544 2.217-2.848 2.389-4.586 2.594-2.016.237-4.078-.074-4.93-.744-.388-.305-.844-.557-1.013-.56-.398-.006-2.053-2.176-2.734-3.584-.292-.604-.611-1.653-.709-2.331s-.292-1.452-.431-1.72c-.828-1.594-1.028-9.502-.387-15.256 1.446-12.964 1.413-12.435.775-12.435-.289 0-.987.368-1.553.818-1.396 1.11-3.705 2.369-6.717 3.664-1.382.594-2.72 1.198-2.973 1.342-.986.562-2.786 1.066-4.303 1.203a17.77 17.77 0 0 0-4.63 1.04c-.509.182-1.483.412-2.164.511-.977.142-1.429.392-2.145 1.184-1.091 1.207-2.684 3.55-3.888 5.716a43.88 43.88 0 0 1-2.031 3.222c-.632.899-1.149 1.748-1.149 1.886s-.176.397-.392.576-.96 1.271-1.654 2.426l-1.722 2.816c-.253.393-.54.894-.638 1.112-.242.538-2.143 3.328-3.155 4.63-.754.97-2.29 3.346-3.3 5.106-.226.393-.554 1.206-.729 1.808s-.497 1.241-.714 1.421-.396.472-.396.647c0 .505-1.158 1.459-2.099 1.729-.778.223-.938.165-1.658-.602-.805-.858-1.535-2.245-1.535-2.919 0-.202.73-1.164 1.622-2.137 1.647-1.797 2.3-2.625 3.567-4.524.388-.582 1.12-1.535 1.625-2.117 1.295-1.492 5.094-6.748 5.45-7.541.164-.364.453-.825.644-1.024s1.259-1.747 2.375-3.44l2.17-3.209c.309-.288 1.332-1.842 1.332-2.023 0-.106.217-.438.482-.738s.908-1.279 1.428-2.174l.947-1.628-.701-.135c-.385-.074-1.713-.389-2.95-.7l-2.878-.698c-.346-.074-.971-.476-1.389-.893-.611-.611-.76-.992-.76-1.947 0-1.008.126-1.294.836-1.891.979-.824 1.858-.739 2.808.27.853.907 3.234 1.542 5.852 1.56l2.219.016.895-1.323c.492-.728 1.177-1.621 1.521-1.984s1.132-1.614 1.749-2.778 1.35-2.414 1.627-2.778 1.125-1.614 1.883-2.778 1.498-2.246 1.644-2.404.801-1.038 1.456-1.956 1.637-2.195 2.183-2.838.992-1.315.992-1.493c0-.27.888-1.788 2.114-3.613.147-.218.765-1.23 1.373-2.249s1.256-2.002 1.438-2.184.415-.599.517-.926.526-.985.943-1.463.758-.979.758-1.112.595-1.04 1.323-2.013 1.323-1.89 1.323-2.038.281-.636.624-1.087.943-1.448 1.332-2.217.887-1.602 1.107-1.852c.577-.657 3.287-4.829 3.287-5.06 0-.108.474-.663 1.054-1.234s1.056-1.283 1.058-1.582.333-1.073.735-1.72c.759-1.222 1.065-1.881 3.121-6.733.678-1.601 1.373-3.089 1.544-3.307s.595-.933.943-1.587.79-1.285.982-1.401.644-.834 1.005-1.597c.915-1.934 2.017-2.935 3.195-2.901 2.542.072 2.775 2.539.539 5.706-1.313 1.859-2.165 3.45-2.525 4.715-.149.523-.493 1.207-.764 1.52s-.709 1.135-.973 1.828-.8 1.854-1.192 2.581-.797 1.68-.9 2.117c-.185.784-.339 1.172-1.439 3.635-.308.69-.56 1.376-.56 1.526s-.301.848-.668 1.551-.599 1.46-.514 1.681c.173.45-.978 6.352-1.716 8.805-.263.873-.616 3.016-.784 4.763l-.435 4.498c-.071.728-.237 1.621-.367 1.984-.382 1.063-.808 3.241-.802 4.101.015 2.26-.032 2.159.81 1.708.284-.152.801-.729 1.151-1.282a15.76 15.76 0 0 1 1.471-1.907c2.236-2.409 6.088-8.056 6.088-8.925 0-.148.387-.928.86-1.734.618-1.053 1.064-1.512 1.584-1.629.399-.09.793-.273.876-.407.24-.389 1.366-.283 1.821.172.306.306.374.709.26 1.521-.153 1.083-1.135 4.431-1.838 6.265a30.76 30.76 0 0 0-.63 1.852l-.856 2.873c-.319 1.071-.915 2.44-1.324 3.043-.478.705-.745 1.445-.748 2.073-.003.537-.116 1.045-.253 1.13s-.241.359-.233.611c.079 2.472-.622 6.966-1.536 9.846-.423 1.332-.575 2.274-.463 2.871a4.57 4.57 0 0 1-.138 1.855c-.167.532-.409 2.813-.537 5.068-.213 3.76-.301 4.563-.685 6.267-.072.318.043 1.245.255 2.06s.321 1.651.241 1.858c-.441 1.151 2.143 4.632 3.438 4.632 1.467 0 2.353-.41 4.117-1.906 2.049-1.738 5.927-6.465 7.298-8.898.146-.258.83-1.131 1.521-1.939s1.257-1.594 1.257-1.747.417-.776.926-1.386.926-1.246.926-1.415.656-1.189 1.458-2.269 1.766-2.593 2.143-3.363.944-1.673 1.261-2.006.917-1.26 1.333-2.06 1.157-2.071 1.647-2.823.89-1.445.89-1.539.298-.562.661-1.038.661-1.006.661-1.175.285-.555.634-.858.787-1.106.974-1.784.54-1.531.784-1.895.843-1.346 1.331-2.183.982-1.521 1.096-1.521.209-.151.209-.335c0-.423 1.501-3.537 2.154-4.469.271-.386.492-.929.492-1.207s.208-.735.463-1.017c.471-.522.638-.9 1.882-4.276.399-1.083 1.116-2.372 1.655-2.977.851-.954 1.079-1.066 2.173-1.066 1.007 0 1.298.115 1.649.651.451.688.313 1.55-.551 3.45a52.38 52.38 0 0 0-.962 2.381c-.33.873-.793 1.885-1.028 2.249a10.57 10.57 0 0 0-.785 1.588c-.197.509-.815 1.902-1.375 3.095s-1.363 3.255-1.787 4.582-.951 2.691-1.173 3.029c-.486.742-1.366 3.359-1.56 4.64-.077.509-.496 1.7-.932 2.646-.721 1.566-.965 2.582-1.912 7.937-.167.946-.53 2.088-.806 2.539s-.452.869-.391.931-.055 1.3-.258 2.753c-.375 2.679-.194 6.63.37 8.101.683 1.778 3.265 3.31 5.111 3.034 1.527-.229 3.856-2.053 5.095-3.99.514-.803 1.055-1.46 1.202-1.46s.268-.137.268-.303.417-.931.926-1.698.926-1.48.926-1.583.417-.768.926-1.477.926-1.48.926-1.714.58-1.292 1.289-2.352 1.542-2.678 1.852-3.595.842-1.972 1.182-2.344.775-1.092.966-1.602a83.98 83.98 0 0 1 1.443-3.572c.678-1.571.982-2.384 3.295-8.817l2.524-7.322c.259-1.16 1.774-3.299 2.463-3.476.575-.148.926-.621 1.771-2.388.22-.46.769-1.234 1.219-1.72s.992-1.211 1.204-1.612c.641-1.212 2.37-2.111 4.744-2.466 2.437-.364 2.849-.34 5.019.293 1.825.532 2.797 1.209 4.925 3.431 2.242 2.34 2.71 3.022 2.793 4.072.11 1.397.604 2.41 1.174 2.41.372 0 .536.262.663 1.058.145.904.265 1.058.825 1.058.361 0 1.009-.298 1.442-.661s.948-.661 1.145-.661.429-.208.515-.463c.168-.497 6.286-3.52 7.107-3.511.264.003.721-.124 1.015-.281.76-.406 3.056-.04 3.633.579.844.906 1.119 2.872.687 4.912-.211.994-.385 2.048-.387 2.343s-.375 1.248-.829 2.117-1.002 2.176-1.22 2.903-.68 1.81-1.029 2.405-.616 1.369-.596 1.72-.287 1.471-.684 2.489-.809 2.328-.917 2.91-.445 1.892-.749 2.91-.691 2.566-.86 3.44a21.03 21.03 0 0 1-.816 2.916c-.313.816-.509 1.989-.509 3.043 0 .943-.182 2.727-.405 3.964-.416 2.313-.34 5.385.175 7.058.272.883 1.848 1.938 2.895 1.938.539 0 2.342-1.173 3.661-2.381 1.192-1.093 3.761-4.253 4.171-5.132.57-1.223.927-1.796 1.835-2.951.452-.575 1.151-1.572 1.553-2.215s.954-1.409 1.226-1.7a3.37 3.37 0 0 0 .66-1.079c.091-.302.407-.812.701-1.134a7.35 7.35 0 0 0 .829-1.112c1.656-2.968 6.094-9.905 7.292-11.399.292-.364.533-.74.536-.837s.423-.808.932-1.581.926-1.549.926-1.723.299-.672.665-1.107.832-1.188 1.035-1.674.678-1.241 1.054-1.677.684-.902.684-1.033.285-.613.634-1.07c.579-.759 1.188-1.834 3.368-5.95.419-.791.986-1.684 1.26-1.984s.692-.93.93-1.401c.791-1.564 2.459-1.983 3.668-.921.377.331.436.666.305 1.755-.159 1.326-1.001 3.995-1.426 4.517-.12.147-.64 1.339-1.155 2.649-1.565 3.978-2.315 5.714-2.843 6.581-.277.455-.509 1.125-.513 1.489-.011.798-1.614 5.62-2.039 6.132-.37.445-1.393 5.234-1.398 6.544-.004 1.063-.573 2.897-.979 3.16-.146.094-.402 1.623-.568 3.398s-.428 3.555-.581 3.957-.197 1.208-.098 1.795l.18 1.065.736-.881c.405-.485.814-1.297.909-1.806.52-2.772 4.766-8.799 7.888-11.196l1.767-1.388c.802-.681 2.304-1.703 3.582-2.437 1.366-.785 3.182-1.156 6.615-1.352 2.905-.166 6.18-.602 6.729-.896.397-.212.532-.669.648-2.189.253-3.299-.053-11.083-.525-13.387-.07-.34-.437-.905-.816-1.257-.955-.885-3.062-.909-3.92-.044-.325.327-1.079.942-1.675 1.367s-1.272 1.198-1.503 1.72-.53 1.127-.667 1.345c-.609.975-1.097 2.37-1.475 4.22-.468 2.289-1.313 4.175-1.964 4.381-.603.191-1.237-.08-1.445-.618-.215-.558-.201-5.117.019-5.992.196-.782 1.602-3.547 2.088-4.108.189-.218.59-.945.891-1.614 1.216-2.703 5.074-6.159 5.925-5.307.365.365 1.259.41 1.259.063 0-.134.416-.381.924-.549.796-.263 1.025-.234 1.654.208.402.282 1.281.754 1.954 1.049 1.058.463 1.287.71 1.693 1.822a60.01 60.01 0 0 0 .978 2.477c.731 1.71.95 4.18.899 10.142-.025 2.886.021 5.287.101 5.337.319.197 4.655-.486 5.027-.793.218-.18.726-.406 1.129-.501 1.023-.243 3.548-1.902 4.042-2.656.226-.345.852-.93 1.39-1.3s1.955-1.602 3.147-2.738c2.57-2.45 2.98-3.441 1.752-4.23-.41-.263-.983-.698-1.274-.966s-.886-.674-1.323-.903c-1.035-.542-2.844-1.945-3.156-2.45-.135-.218-.582-.713-.992-1.098s-.746-.778-.746-.871-.246-.501-.546-.908c-.73-.987-1.102-3.64-.583-4.159 1.559-1.559 3.118-.988 4.579 1.678.339.618.699 1.124.8 1.124s.328.349.505.775.489.839.694.918.373.307.373.507c0 .485.719 1.073 1.852 1.512.509.198.986.426 1.058.507.471.524 1.921 1.338 2.384 1.338.698 0 1.318-1.387 1.326-2.968.003-.623.132-1.609.285-2.191s.432-1.773.62-2.646a34.62 34.62 0 0 1 .879-3.175 29.26 29.26 0 0 0 .845-3.175c.373-1.932 1.446-5.114 2.294-6.804.344-.686.626-1.48.626-1.762s.41-1.474.912-2.646a45.59 45.59 0 0 0 1.485-4.058c.315-1.06.798-2.243 1.072-2.629s.499-.814.499-.951.476-.986 1.058-1.886 1.058-1.724 1.058-1.83.907-1.179 2.016-2.384c2.456-2.669 4.662-3.869 7.641-4.157 1.723-.167 1.891-.136 2.416.442.789.869.94 3.004.37 5.22-.678 2.634-1.861 6.139-2.901 8.597-.3.71-.546 1.422-.546 1.582 0 .367-.974 2.91-1.585 4.139l-.979 1.984c-2.399 4.898-3.419 6.812-3.833 7.186-.265.24-.482.539-.482.665s-.491 1.03-1.091 2.01l-1.62 2.707a15.52 15.52 0 0 1-1.172 1.72c-.354.437-1.2 1.568-1.881 2.514s-1.368 1.839-1.528 1.984c-1.083.987-3.292 4.624-3.292 5.419 0 .351 1.882 1.523 2.822 1.759.412.103 1.285.452 1.94.776s1.607.675 2.117.781 1.248.357 1.64.557 1.107.369 1.587.373 1.097.178 1.372.386c.727.55 2.725.798 3.208.398.313-.26.557-.26 1.186.001.436.18 1.048.261 1.36.179.653-.171 2.346.975 2.346 1.587 0 .485-1.397 3.309-2.18 4.407-1.111 1.558-1.635 2.919-2.968 7.718-.713 2.567-.921 4.277-1.027 8.467-.139 5.473.035 6.632 1.476 9.84.817 1.818 3.279 3.819 4.245 3.448.224-.086 1.067-1.523 1.873-3.193s1.581-3.108 1.723-3.195.334-.507.427-.932.334-.908.534-1.075.308-.448.24-.626c-.126-.327 2.944-5.269 4.201-6.763.374-.445.758-1.052.852-1.348s.43-.822.746-1.168a22.76 22.76 0 0 0 1.309-1.645c.404-.559 1.237-1.651 1.852-2.426 1.392-1.754 2.399-3.081 3.248-4.279.361-.509 1.304-1.7 2.095-2.646s2.006-2.839 2.699-4.206c1.437-2.836 2.176-3.465 4.075-3.466.987-.001 1.565-.228 3.133-1.232 1.058-.677 2.418-1.34 3.023-1.474 1.771-.391 4.505-.714 4.955-.585.588.169 2.363 3.47 2.363 4.396 0 .425.195 1.63.433 2.677.344 1.512.397 2.613.255 5.344l-.274 4.101a224.72 224.72 0 0 0-.393 3.137c-.163 1.362-.414 2.693-.556 2.959s-.259 1.095-.259 1.841-.14 1.618-.311 1.936c-.315.585-.606 1.721-.995 3.885-.118.655-.36 1.824-.538 2.598s-.261 1.471-.184 1.548c.227.227.72-.183.959-.798.122-.313.799-1.344 1.505-2.289 2.057-2.756 2.224-3.005 4.062-6.085l2.225-3.603c.278-.419.764-1.179 1.081-1.689 1.35-2.173 2.702-4.174 3.506-5.187.474-.597.861-1.174.861-1.282s.476-.738 1.058-1.399 1.058-1.312 1.058-1.445c0-.386 1.55-2.283 3.74-4.577l2.646-2.826c.848-.96 3.17-2.108 4.591-2.268 1.298-.146 3.462.583 3.72 1.254.326.847.55 6.572.32 8.205a41.01 41.01 0 0 0-.304 3.572c-.034 1.019-.196 2.447-.359 3.175-.337 1.503-.807 4.277-1.12 6.615-.117.873-.475 3.016-.795 4.763l-.712 4.233c-.071.582-.298 1.507-.504 2.056s-.375 1.416-.375 1.927a5.86 5.86 0 0 1-.397 1.879c-.505 1.209-.526 2.737-.037 2.737s2.815-2.075 2.815-2.511c0-.316.51-1.028 2.47-3.444.355-.438 1.546-2.164 2.647-3.836s2.53-3.755 3.175-4.628 1.379-1.996 1.631-2.494.861-1.48 1.353-2.18.895-1.352.895-1.447c0-.327 1.88-3.007 2.109-3.007.126 0 .486-.774.801-1.72s.667-1.72.784-1.72.529-.625.917-1.389 1.236-1.973 1.884-2.686 1.178-1.391 1.178-1.505c0-.189 1.549-2.141 2.517-3.173.216-.23.393-.544.393-.697 0-.395.942-.59 2.013-.416 1.361.221 2.002 1.174 1.811 2.697-.084.669-.195 2.288-.246 3.598s-.223 2.716-.381 3.126-.287 1.116-.287 1.569c0 .794-.172 1.469-.964 3.794-.35 1.026-.629 2.595-1.148 6.461-.127.946-.355 2.256-.507 2.91a144.04 144.04 0 0 0-.675 3.175l-.809 3.969c-.225 1.091-.533 3.42-.684 5.174-.233 2.704-.209 3.45.154 4.895l.652 2.747c.397 1.848 1.417 2.156 3.458 1.045 1-.544 1.302-.868 1.426-1.53.136-.724.325-.889 1.367-1.197 1.541-.455 1.719-.885 1.978-4.785.254-3.817.596-5.606 1.438-7.51.365-.826.664-1.631.664-1.79 0-.452 2.377-5.295 3.032-6.178.324-.437.669-1.304.767-1.928a14.48 14.48 0 0 1 .586-2.249c.224-.613.577-1.889.784-2.834a63.03 63.03 0 0 1 1.063-3.969l.956-3.307c.149-.582.437-1.449.641-1.927s.371-1.215.371-1.638.101-.832.225-.908.417-.649.65-1.272l.741-1.927c.174-.437.347-.941.384-1.121s.495-.826 1.018-1.437.95-1.305.95-1.544.536-.993 1.191-1.677 1.191-1.35 1.191-1.481.42-.498.933-.815 1.124-.768 1.358-1.002c.492-.492 2.936-.626 4.191-.23 1.459.46 4.725 3.18 6.091 5.073.42.582 1.491 1.832 2.38 2.778 1.836 1.954 3.411 4.953 3.669 6.985.091.713.287 1.444.438 1.625.509.613 1.108 5.519 1.097 8.985-.013 4.18-.445 6.314-1.836 9.063-.573 1.133-1.195 2.523-1.381 3.089-.467 1.415-1.662 3.797-3.349 6.673-.781 1.332-1.42 2.497-1.42 2.591s-.222.408-.494.699-.766 1.06-1.1 1.709-.684 1.179-.779 1.179-1.356 1.369-2.803 3.042-2.719 3.042-2.828 3.043-.764.405-1.455.898-1.495.942-1.787.996-.529.234-.529.4-.342.619-.76 1.006l-.76.705.76.8c1.884 1.983 4.654 2.481 7.375 1.326 2.086-.886 4.076-2.152 5.574-3.546l2.84-2.651c.895-.837 1.719-1.521 1.832-1.521s.205-.16.205-.356.251-.583.557-.86.785-.951 1.064-1.496.623-.992.766-.992.259-.13.259-.289c0-.301.616-1.169 2.01-2.834.45-.538 1.159-1.574 1.575-2.301s.822-1.382.903-1.455.475-.609.874-1.191a58.55 58.55 0 0 1 1.514-2.083c.433-.564.72-1.135.637-1.268s-.034-.387.109-.562c1.088-1.34 2.432-4.829 2.432-6.314 0-.542.119-1.059.265-1.149s.265-.679.265-1.308.178-1.486.395-1.903.396-1.189.397-1.717.18-1.465.399-2.084.397-1.512.397-1.984.193-1.38.428-2.017.454-1.336.485-1.555l.26-1.852c.242-1.735.862-4.528 1.19-5.358.129-.327.443-1.309.698-2.182s.549-1.766.655-1.984c.414-.86.753-1.782 1.168-3.175.238-.8.508-1.634.6-1.852a4.14 4.14 0 0 0 .23-.794c.091-.57.739-2.225.932-2.381.09-.073.225-.549.298-1.058.182-1.254 1.377-4.346 2.041-5.278.297-.416.539-.825.539-.907s.298-.8.661-1.596.661-1.558.661-1.695.179-.397.397-.579.397-.484.397-.672c0-.589 1.404-3.44 1.884-3.826.225-.181 1.291-2.554 1.291-2.874 0-.141.089-.297.198-.345.321-.143 1.654-2.012 1.654-2.32 0-.155.105-.282.232-.282s.371-.334.54-.742a5.98 5.98 0 0 1 .892-1.398c.322-.361 1.061-1.58 1.643-2.709 1.165-2.259 2.319-3.354 3.535-3.354 1.741 0 2.16 1.319 1.217 3.836-.381 1.019-.994 2.745-1.361 3.836s-.85 2.337-1.073 2.768-.739 1.741-1.146 2.91l-1.267 3.582c-.289.8-.783 2.467-1.097 3.704s-.845 2.844-1.179 3.572c-.482 1.049-.99 2.822-1.327 4.63-.014.073-.218.668-.454 1.323s-.866 2.56-1.399 4.233-1.138 3.413-1.342 3.866-.504 1.434-.664 2.18-.401 1.425-.534 1.508-.243.383-.243.667-.101.724-.225.977a68.93 68.93 0 0 0-.754 1.65l-1.217 2.646c-.379.8-.77 1.812-.869 2.249s-.334.972-.522 1.191c-.836.972-5.487 10.622-5.93 12.303-.268 1.019-.689 2.388-.936 3.043-.927 2.464-1.327 7.822-.737 9.872.217.755.545 2.028.727 2.83.719 3.153 2.264 5.111 4.271 5.412.715.107 1.307.079 1.4-.066.089-.138.762-.555 1.497-.925 1.25-.631 2.225-1.57 5.147-4.962l1.48-1.684c.69-.72 1.957-4.367 1.962-5.645 0-.256.19-.824.421-1.26s.461-.972.512-1.191c.289-1.228 1.228-3.285 1.821-3.991.376-.447.684-.925.684-1.062s.299-.723.665-1.303.599-1.053.518-1.053.135-.303.478-.674c.856-.923 2.593-1.011 3.43-.174.499.499.539.668.262 1.111-.179.287-.326.925-.326 1.417a2.95 2.95 0 0 1-.529 1.567c-.291.37-.529.807-.529.971s-.298.885-.661 1.603-.661 1.44-.661 1.604-.232.625-.516 1.024c-.475.667-1.324 3.394-1.86 5.971-.121.582-.405 1.73-.631 2.55-.993 3.608-1.068 9.726-.166 13.543.459 1.942 1.862 4.718 3.102 6.139.798.914 2.345 1.978 2.878 1.978.279 0 .952.238 1.495.529s1.166.529 1.385.529c.647 0 1.456 1.001 1.456 1.803 0 1.041-1.414 2.402-2.07 1.992-.255-.159-.995-.377-1.645-.483s-1.538-.455-1.974-.775-1.33-.899-1.984-1.288c-2.114-1.255-3.705-3.028-4.726-5.27-.311-.683-.566-1.347-.566-1.475s-.307-.989-.682-1.913c-.424-1.044-.772-2.587-.92-4.081-.378-3.826-.777-5.624-1.363-6.155-.518-.469-.555-.452-1.627.753-.603.678-1.478 1.422-1.943 1.654s-.942.57-1.058.753c-.456.716-2.256 1.827-3.193 1.971-.543.083-1.189.255-1.436.381-.554.283-2.797-.556-4.062-1.521-.488-.372-1.018-1.076-1.179-1.564s-.381-.925-.488-.971c-.669-.285-2.528-4.969-2.872-7.237a3.79 3.79 0 0 0-.604-1.442c-.411-.545-.544-.587-.904-.289-.232.193-.422.463-.422.6s-.298.64-.661 1.117-.661.988-.661 1.135-.566 1.03-1.257 1.961l-1.654 2.249c-3.343 4.683-5.757 7.524-7.293 8.581-.608.418-1.806 1.36-2.661 2.092s-1.639 1.332-1.742 1.333-.601.284-1.108.627c-1.175.797-3.743 1.438-6.114 1.526-2.019.075-3.947-.488-5.054-1.474a106.18 106.18 0 0 0-1.709-1.471c-.604-.509-1.663-1.474-2.354-2.143-.966-.936-1.524-1.258-2.42-1.394-1.594-.243-3.99-.977-4.471-1.37-.218-.178-.873-.563-1.455-.855s-1.535-1.134-2.117-1.869-1.215-1.403-1.406-1.482-1.197.57-2.234 1.443c-1.815 1.528-2.66 1.935-4.726 2.276-.889.147-1.059.056-2.381-1.265-1.886-1.886-2.993-4.215-3.435-7.232-.324-2.208.236-7.36 1.123-10.319.741-2.473 1.004-3.783 1.96-9.745.206-1.285.509-2.833.672-3.44s.402-1.758.529-2.559.397-2.282.601-3.292c.369-1.833.302-3.852-.128-3.852-.322 0-2.053 2.396-2.245 3.109-.088.327-.262.595-.386.595s-.361.455-.528 1.01-.657 1.417-1.091 1.913-.955 1.303-1.159 1.791-.709 1.324-1.121 1.857-.906 1.359-1.097 1.836-.747 1.37-1.235 1.984-.89 1.204-.891 1.311-.598 1.055-1.325 2.108-1.323 2.022-1.323 2.153-.595.996-1.323 1.922-1.323 1.846-1.323 2.045-.238.577-.529.84-.529.617-.529.785-.366.576-.812.907-1.042 1.137-1.323 1.792-.927 1.596-1.436 2.09-.926 1.054-.926 1.243c0 .511-2.649 2.956-3.629 3.349-.468.188-.989.507-1.157.71-.487.587-1.882.446-2.652-.267-1.122-1.04-1.027-3.26.462-10.874.228-1.164.544-2.355.703-2.646.316-.579.611-2.13.972-5.112.129-1.065.356-2.494.505-3.175.311-1.425.671-4.171 1.115-8.514.171-1.673.407-3.165.524-3.315.418-.534.597-5.54.249-6.987-.37-1.542-.713-1.807-1.678-1.293-.974.518-5.638 5.651-6.87 7.561-.587.91-1.148 1.654-1.247 1.654s-1.23 1.578-2.513 3.506l-3.347 5c-.558.822-1.097 1.711-1.199 1.977s-.787 1.383-1.523 2.485l-1.603 2.426c-.146.233-1.456 2.193-2.913 4.356s-2.779 4.229-2.939 4.593-.563 1.197-.897 1.852c-2.357 4.632-2.834 5.424-3.494 5.804-.395.227-.752.651-.794.942-.121.842-2.023.885-2.796.063-.607-.646-.959-2.214-.553-2.464.127-.078.231-.474.231-.88s.191-1.12.424-1.588c.451-.904 1.885-6.232 2.214-8.226.556-3.367.922-4.935 1.241-5.312.194-.23.353-.667.353-.973s.229-1.725.509-3.154a68.76 68.76 0 0 0 1.263-14.583c-.064-3.548-.126-3.99-.705-5.016-.533-.944-.767-1.124-1.455-1.124-1.444 0-4.094 1.644-5.765 3.577-.836.967-1.52 1.917-1.52 2.112s-.174.691-.386 1.103c-.499.968-1.731 4.37-1.731 4.78 0 .174-.751 1.838-1.668 3.699-2.069 4.196-2.248 4.671-2.867 7.602-.275 1.302-.665 2.62-.868 2.928s-.502 1.506-.667 2.66c-.335 2.347-.801 4.609-1.033 5.008-.084.145-.174.74-.199 1.323-.046 1.048-.096 1.402-.635 4.499-.621 3.563-.777 4.322-1.303 6.317-.302 1.146-.549 2.553-.549 3.126s-.127 1.279-.282 1.568-.438 1.442-.63 2.562c-.681 3.982-1.245 6.817-1.619 8.145-.209.74-.383 1.752-.387 2.249s-.245 1.736-.534 2.755-.64 2.447-.778 3.175a91.87 91.87 0 0 1-.69 3.175c-.241 1.019-.498 2.326-.571 2.905s-.287 1.293-.475 1.588c-.407.635-1.189 4.411-1.975 9.531-.58 3.782-1.065 5.894-1.732 7.541-.206.509-.677 2.355-1.047 4.101s-.919 3.83-1.221 4.63-.658 2.164-.79 3.029c-.143.936-.454 1.801-.767 2.134-.289.308-.53.79-.535 1.072s-.18.81-.388 1.174-.389.9-.403 1.191c-.032.673-.94 2.38-2.037 3.828-1.62 2.138-3.851 2.675-6.159 1.481zm3.784-4.185c.35-.473 1.137-2.289 1.749-4.035l1.392-3.969c.329-.938 1.597-5.473 2.367-8.467.299-1.164.645-2.238.768-2.387.237-.287.513-1.832 1.196-6.704.232-1.653.55-3.32.707-3.704s.376-1.234.486-1.889c.317-1.882.486-2.677.897-4.233.658-2.487 1.274-5.108 1.493-6.35.206-1.17.549-2.663.91-3.969.101-.364.344-1.673.54-2.91s.547-2.963.778-3.836c.576-2.173 1.079-4.688 1.716-8.589.296-1.813.656-3.415.8-3.559s.266-.684.272-1.201.242-2.011.526-3.321c1.311-6.059 2.364-12.685 2.088-13.133-.219-.354-2.147 1.456-2.997 2.814-1.381 2.206-4.151 4.632-6.642 5.817-1.021.486-2.047 1.102-2.279 1.369-.592.68-1.723 3.027-1.944 4.033-.101.462-.565 1.341-1.031 1.954-.594.782-.858 1.431-.886 2.177-.022.584-.225 1.418-.452 1.852s-.412.98-.413 1.213-.299.983-.663 1.668-.661 1.648-.661 2.142-.298 1.458-.661 2.142-.661 1.604-.661 2.044-.162.988-.36 1.217c-.459.532-1.754 4.588-1.765 5.527-.004.391-.183.942-.397 1.225s-.387.759-.386 1.058-.23 1.259-.515 2.132c-.722 2.214-1.341 5.11-1.341 6.265 0 .535-.178 1.152-.396 1.37a1.56 1.56 0 0 0-.397.954c0 .829-1.289 8.226-1.585 9.094-.495 1.452-1.115 11.008-.905 13.934.11 1.528.174 2.97.144 3.205-.105.8 1.622 5.392 2.316 6.155 1.218 1.341 2.134 1.75 3.919 1.751 1.544 0 1.677-.049 2.276-.859zm-158.365-13.031a32.66 32.66 0 0 0 1-3.704l.66-3.175a150.69 150.69 0 0 0 .695-3.307c.216-1.091.564-2.564.772-3.272s.378-1.573.378-1.923c0-.79 1.899-10.31 2.244-11.249.179-.487 1.144-5.973 1.762-10.015l.748-4.895c.65-4.253.797-4.975 1.346-6.6.442-1.309.524-1.893.328-2.334-.255-.571-.276-.561-.753.337-.761 1.434-4.355 11.862-5.015 14.55-.958 3.902-1.27 5.08-2.001 7.534l-1.193 4.041c-.621 2.138-1.361 5.899-2.615 13.295-.498 2.939-.725 5.802-.714 9.013.01 2.862.298 3.765 1.162 3.637.426-.063.705-.513 1.197-1.934zm274.771-53.115c1.917-1.072 5.761-4.652 7.516-7.001.412-.552.987-1.199 1.278-1.439s.827-1.011 1.191-1.714.959-1.61 1.323-2.016 1.197-1.778 1.852-3.048 1.31-2.397 1.455-2.504.179-.196.073-.198.207-.808.693-1.79.965-2.127 1.063-2.543.4-1.25.669-1.852c.766-1.712 1.176-5.562.984-9.241-.248-4.755-1.422-8.61-3.715-12.194-1.068-1.669-4.789-5.627-5.774-6.142-.832-.435-2.011-.481-2.97-.116-.887.337-3.012 2.562-3.457 3.619-.193.459-.897 1.53-1.566 2.381-.68.866-1.215 1.829-1.215 2.186 0 .351-.18 1.244-.399 1.984-2.282 7.696-3.283 11.298-3.541 12.733-.106.587-.268 1.191-.361 1.342-.158.256-.728 2.654-1.283 5.395-.222 1.098-.582 4.63-.567 5.556.06 3.619.552 8.356 1.011 9.733.208.624.378 1.522.378 1.998s.099.977.221 1.115.426.81.678 1.493c.748 2.035 1.331 2.595 2.696 2.595.646 0 1.441-.149 1.767-.331zm-8.554-.447c.326-.206.329-.403.019-1.385-.198-.63-.512-1.326-.697-1.548s-.456-1.055-.601-1.852-.4-1.985-.566-2.639-.363-1.697-.437-2.315c-.247-2.055-.509-1.166-.78 2.646-.304 4.281-.246 4.553 1.331 6.218 1.157 1.221 1.173 1.23 1.731.876zm-304.497-2.487c1.37-.489 2.054-.925 2.368-1.512.248-.463.172-.579-.589-.903-1.229-.524-2.125-1.796-2.945-4.178-.651-1.891-.706-2.381-.698-6.218.005-2.291.185-5.713.4-7.604l.653-6.218c.144-1.528.371-3.195.504-3.704s.326-1.929.428-3.155.297-2.595.432-3.043.35-1.35.476-2.005.408-1.845.626-2.646c.553-2.03.793-3.704.53-3.703-.491.002-2.495 1.976-3.312 3.261-.478.752-1.54 2.202-2.36 3.22-1.939 2.409-2.62 3.716-2.62 5.03 0 .588-.128 2.078-.284 3.311s-.323 2.718-.37 3.3a262.21 262.21 0 0 1-.499 4.763c-.474 4.246-.558 11.221-.162 13.361.148.8.329 2.11.401 2.91s.248 1.495.39 1.543.259.242.259.43c0 .695 1.399 2.815 2.096 3.176.396.205.881.566 1.077.802.387.466 1.486.391 3.197-.22zm143.264.086c.43-.163 1.061-.556 1.403-.874.803-.746 2.059-3.228 2.309-4.563a7.51 7.51 0 0 1 .683-1.91c.268-.477.487-1.062.487-1.3 0-.479.607-2.746 1.226-4.579.221-.655.575-2.143.786-3.307l.609-3.307c1.567-8.286 1.859-10.056 1.718-10.421-.136-.354-.623-.427-2.855-.427-1.855 0-2.853.113-3.213.364-.287.2-1.296.449-2.242.553-1.653.182-5.556 1.791-5.556 2.292 0 .113-.744.621-1.654 1.13-1.624.909-3.144 2.435-3.984 3.999a6.26 6.26 0 0 1-1.05 1.368c-.344.318-.927 1.33-1.295 2.249l-1.263 3.127c-.883 2.164-1.123 3.352-1.133 5.608-.007 1.555.109 2.219.489 2.809.767 1.19 2.011 2.51 2.883 3.061.434.274 1.385.949 2.113 1.501 1.523 1.154 3.882 2.389 5.002 2.618 1.465.3 3.757.304 4.535.01zm-71.708-8.18c1.571-.792 4.031-3.117 4.73-4.468.213-.412.872-1.187 1.463-1.721s1.075-1.134 1.075-1.332.273-.764.607-1.257 1.062-1.909 1.62-3.146l1.642-3.576c.346-.73.633-1.563.638-1.852s.183-.756.397-1.039.388-.686.388-.897.227-.873.505-1.471c1.049-2.257 1.954-6.965 2.077-10.811.123-3.833.085-3.952-1.061-3.307-.858.483-3.38 2.391-4.326 3.273-.449.419-1.491 1.337-2.315 2.04s-1.832 1.596-2.24 1.984c-1.218 1.158-3.82 3.329-4.812 4.015-.509.352-1.045.772-1.191.933s-.592.496-.992.743-.728.621-.728.829-.456.745-1.014 1.193-1.361 1.306-1.786 1.905-1.218 1.553-1.764 2.118-.992 1.186-.992 1.379-.231.645-.513 1.004-.732 1.238-1 1.954c-.458 1.226-.462 1.44-.075 3.683.413 2.389 1.83 5.953 2.368 5.953.153 0 .278.17.278.379 0 .538 1.233 1.342 2.778 1.811 1.934.587 2.535.542 4.241-.319zm137.246-3.524c1.292-1.391 3.203-3.88 3.746-4.876.224-.41.835-1.163 1.359-1.672s1.38-1.7 1.902-2.646 1.117-1.917 1.322-2.158.605-1.369.89-2.505c.813-3.255.333-3.501-1.508-.772-.998 1.478-3.549 5.008-4.216 5.832-.236.291-.773 1.205-1.195 2.031s-.885 1.575-1.03 1.665-.453.563-.685 1.051-.767 1.228-1.19 1.642c-.525.515-.771 1.022-.776 1.598-.004.464-.126.918-.272 1.008s-.265.335-.265.545c0 .72.876.38 1.919-.743zM568.988 69.407c.643-1.243 10.28-10.678 11.74-11.494.553-.309 4.216-3.319 4.323-3.552.118-.259 4.664-3.816 5.959-4.662.614-.402 1.188-.956 1.275-1.231.177-.557-.594-2.817-1.44-4.219a37.54 37.54 0 0 1-1.202-2.232c-.704-1.425-2.352-3.307-2.895-3.307-.184 0-.615-.299-.958-.664a3.9 3.9 0 0 0-1.567-.914c-1.323-.35-3.727-.387-4.522-.069-2.09.835-5.148 5.366-6.557 9.718-.283.873-.832 2.333-1.22 3.243-.835 1.959-1.732 5.174-2.011 7.208-.11.8-.44 2.173-.733 3.051-.316.947-.601 2.722-.701 4.366-.092 1.523-.299 3.207-.458 3.742-.507 1.699.221 2.464.969 1.018zm-88.367-2.378c2.025-.433 6.212-2.121 10.125-4.08 3.326-1.666 4.148-2.202 5.288-3.449.742-.812 1.477-1.477 1.634-1.477s.284-.287.284-.638.237-1.393.526-2.315.529-2.213.534-2.868.198-2.262.43-3.572.518-3.453.635-4.763c.427-4.783.821-7.705 1.23-9.128.23-.8.517-2.17.637-3.043a51.45 51.45 0 0 1 .393-2.447c.363-1.79-.981-.548-2.934 2.712-.697 1.164-2.037 3.307-2.977 4.762l-4.428 7.011c-1.205 2.028-2.311 3.726-3.963 6.085-2.146 3.065-4.049 5.915-5.124 7.673-.579.946-1.274 1.958-1.545 2.249s-.812 1.077-1.201 1.747-1.101 1.707-1.58 2.304c-1.879 2.342-2.509 3.826-1.734 4.084.18.06.865-.055 1.521-.257s1.67-.468 2.252-.592zm378.531-6.819l.881-1.436c1.35-2.282 1.72-2.973 1.72-3.211 0-.152.162-.465.359-.694.523-.607.963-2.07.963-3.196 0-.539.273-1.503.606-2.143s.761-1.819.952-2.619.748-2.296 1.239-3.324 1.024-2.516 1.185-3.307a21.54 21.54 0 0 1 .703-2.558c.226-.616.342-1.46.259-1.877-.103-.515.056-1.166.495-2.034.717-1.416.827-2.246.299-2.246-.363 0-1.24 1.591-1.24 2.249 0 .208-.357.942-.794 1.63s-.794 1.386-.794 1.55-.364 1.05-.81 1.969-.931 2.339-1.08 3.156-.549 2.199-.889 3.072a70.18 70.18 0 0 0-1.032 2.841c-.227.689-.521 1.463-.653 1.72s-.501 1.359-.82 2.451-.918 2.996-1.332 4.233-.812 2.606-.886 3.043a8.14 8.14 0 0 1-.313 1.257c-.327.844.353.48.98-.525zM692.37 37.055c.564-.764 1.211-1.747 1.436-2.183s.661-1.021.967-1.298.556-.654.556-.839.421-.887.936-1.561 1.719-2.731 2.677-4.572l1.962-3.756c.121-.225.419-.886.662-1.468.59-1.414 1.659-3.792 2.121-4.718.205-.412.373-.92.373-1.128s.115-.586.256-.838c.568-1.019 1.86-4.383 1.86-4.844 0-.271.188-1.046.418-1.723.493-1.453.324-2.492-.407-2.492-.503 0-4.774 3.042-4.774 3.401 0 .103-.535 1.017-1.189 2.031s-1.19 2.112-1.191 2.439-.116.595-.256.595-.438.625-.664 1.389-.635 1.865-.911 2.447c-.951 2.005-2.141 5.028-2.14 5.437 0 .226-.119.529-.264.675s-.572 1.45-.948 2.897-.898 3.168-1.16 3.823-.666 1.965-.896 2.91l-.792 3.043c-.621 2.204-.109 2.328 1.366.331zm125.74-19.183c-.602-.305-.982-.728-1.115-1.241-.111-.428-.698-1.206-1.304-1.727-1.049-.904-1.104-1.024-1.141-2.522-.042-1.702.297-2.296 1.59-2.788 1.081-.411 1.241-.335 3.028 1.445 2.177 2.168 2.326 2.432 2.4 4.266.054 1.338-.016 1.58-.581 2.011l-.962.755c-.452.374-.871.331-1.916-.199zM45.646 119.717c-3.032-1.105-5.275-3.028-5.582-4.785-.091-.522-.313-1.187-.492-1.478-.749-1.216-.651-10.05.119-10.82.146-.146.266-.635.266-1.086s.108-.933.239-1.072.309-.847.395-1.574l.268-2.249c.139-1.139 1.619-6.887 2.146-8.334.212-.582.513-1.889.668-2.903.315-2.06.96-4.574 1.939-7.559a40.76 40.76 0 0 0 1.078-4.233c.233-1.231.7-3.19 1.038-4.355s.83-3.069 1.093-4.233l.863-3.572c.211-.8.479-1.931.594-2.514.217-1.093.829-3.703 1.303-5.556a9.77 9.77 0 0 0 .277-1.918c.009-1.178-.735-1.145-2.035.092-2.534 2.409-3.049 2.952-3.722 3.931-.395.575-1.285 1.608-1.976 2.296s-1.257 1.355-1.257 1.484-.387.517-.86.863-1.019.85-1.214 1.12c-.861 1.195-7.232 7.315-8.612 8.273-.839.582-1.605 1.177-1.703 1.323-.31.459-3.162 2.778-3.417 2.778-.134 0-1.067.635-2.074 1.41s-2.665 1.808-3.683 2.294c-2.198 1.048-5.856 3.401-6.647 4.274-.957 1.057-3.127 3.025-3.882 3.519-.422.276-1.051 1.197-1.52 2.226-.441.965-.974 2.052-1.184 2.416s-.566 1.078-.79 1.588l-.76 1.72c-.55 1.234-.924 2.536-1.101 3.836-.179 1.314-.869 3.271-1.947 5.519-.666 1.388-1.779 1.591-2.916.532-.637-.593-.753-2.369-.218-3.329.678-1.215 1.735-3.434 2.305-4.838.905-2.231 1.391-3.175 1.636-3.175.123 0 .223-.212.223-.47s.163-.705.361-.992.454-.818.567-1.18c.191-.611 1.383-2.613 1.735-2.914.314-.269 1.835-3.426 1.835-3.81 0-.087.394-.724.877-1.415s1.272-2.031 1.756-2.977 1.152-2.017 1.486-2.381.688-.992.788-1.395.379-.88.62-1.058.671-.849.955-1.491.848-1.624 1.254-2.184 1.07-1.702 1.476-2.538c1.188-2.444 2.973-5.378 3.365-5.528.199-.076.556-.724.794-1.439a8.78 8.78 0 0 1 1.337-2.383c.498-.595.905-1.189.905-1.32s.553-1.042 1.23-2.025 1.499-2.384 1.829-3.111 1.205-2.068 1.945-2.978 1.346-1.719 1.346-1.797.219-.377.486-.663.606-.907.752-1.378.97-1.908 1.829-3.194l2.062-3.175c.274-.461.899-1.461 1.389-2.223s.89-1.493.89-1.625.163-.303.363-.38.444-.464.544-.861.77-1.323 1.489-2.058 1.308-1.439 1.308-1.566.298-.62.661-1.097.661-.987.661-1.132.25-.551.555-.901.831-1.172 1.167-1.826.831-1.433 1.098-1.73a20.16 20.16 0 0 0 1.138-1.455c.358-.504.916-1.213 1.24-1.578a25.02 25.02 0 0 0 1.2-1.496c2.192-2.987 3.041-4.029 3.39-4.16a4.44 4.44 0 0 0 .85-.481c.645-.471 1.822.455 2.282 1.796.806 2.35 1.193 7.762 1.098 15.361-.028 2.264.063 3.145.394 3.784.579 1.121 1.127 1.287 1.676.51.988-1.398 2.473-3.868 2.941-4.892.441-.965.625-1.107 1.641-1.27 1.453-.232 1.817.199 1.817 2.153 0 2.455-.55 6.472-.975 7.121-.376.573-.604 1.877-1.05 5.988-.091.841-.268 1.592-.393 1.669s-.227.604-.227 1.171-.134 1.363-.298 1.77c-1.053 2.619-1.081 2.728-1.174 4.469-.047.887-.344 3.09-.659 4.895-.698 3.996-1.092 7.394-.914 7.865.073.192.001.595-.159.894-.276.515-.458 1.417-1.033 5.106l-.684 4.101c-.24 1.382-.463 2.93-.494 3.44s-.137 1.343-.234 1.852-.233 1.879-.302 3.043l-.23 3.836a38.79 38.79 0 0 1-.396 3.44c-.331 1.944-.408 7.407-.105 7.41.27.003.86 1.313.86 1.912 0 1.315 1.64 2.584 3.339 2.584 1.498 0 4.061-2.035 5.163-4.101.466-.873 1.236-2.067 1.712-2.652s1.324-1.955 1.885-3.043c1.203-2.332 2.294-4.103 3.093-5.021.317-.364.736-1.138.931-1.72s.696-1.449 1.112-1.927.757-1.021.757-1.207.238-.831.529-1.433.529-1.258.529-1.457.3-.622.666-.941.971-1.224 1.344-2.012.847-1.498 1.054-1.577.375-.46.375-.845.404-1.372.898-2.191c1.129-1.873 2.806-5.1 2.806-5.4 0-.125.286-.606.636-1.069s.982-1.557 1.405-2.43 1.112-2.123 1.531-2.778 1.045-1.726 1.389-2.381l1.354-2.514 1.589-2.959c.474-.9 1.033-1.777 1.241-1.951s.379-.46.379-.638.298-.669.661-1.092.661-.856.661-.962.387-.593.86-1.081 1.134-1.439 1.47-2.114.885-1.443 1.221-1.707.693-.739.793-1.054c.226-.712 1.254-1.595 3.881-3.334.552-.366 1.925-.822 3.282-1.091 1.981-.393 2.487-.412 3.364-.122 1.538.508 3.27 2.253 3.656 3.686.388 1.441.173 4.982-.401 6.611-.219.621-.398 1.416-.398 1.767s-.241.965-.535 1.363-.562 1.107-.595 1.576-.149.853-.259.853-.198.223-.198.494-.238.796-.529 1.166-.529.79-.529.933-.412.719-.915 1.281-1.187 1.557-1.519 2.212c-1.003 1.974-2.641 4.286-4.066 5.738-1.366 1.392-3.507 2.729-4.372 2.729-.261 0-.548.119-.638.265s-.38.265-.645.265-.639.19-.832.422c-.686.826-2.953.044-4.576-1.58-.277-.277-.643-1.052-.813-1.723-.598-2.354-2.309-1.452-3.289 1.734-.321 1.042-.766 2.047-.99 2.233-.233.193-.357.598-.291.945.064.334-.061 1.234-.276 2-.95 3.373-1.162 8.684-.476 11.914.193.908.733 2.446 1.201 3.419.84 1.746 3.035 4.45 3.613 4.45.164 0 .441.173.616.384s.993.772 1.818 1.247c1.433.824 1.624.863 4.278.863 2.831-.001 2.98-.04 5.292-1.411.218-.129.973-.515 1.677-.857 1.076-.523 1.945-1.168 4.541-3.373.146-.124.976-.984 1.846-1.912 1.931-2.061 3.314-4.017 3.314-4.689 0-.276.415-.784.924-1.131s.925-.77.926-.941.176-.486.389-.699c.766-.766 1.67-3.25 1.847-5.074a33.46 33.46 0 0 1 .54-3.44c.198-.873.367-1.766.376-1.984.034-.895.786-4.728 1.194-6.085.986-3.287 1.45-4.996 1.867-6.879.555-2.51.948-3.672 1.968-5.821.449-.946.817-1.969.817-2.274 0-1.018 2.609-7.475 4.234-10.479.291-.538.529-1.166.529-1.395s.29-.86.645-1.403.728-1.344.829-1.78c.186-.803 1.261-3.371 1.716-4.101.136-.218.624-1.171 1.084-2.117s1.157-2.196 1.549-2.778c.975-1.448 1.613-2.478 2.204-3.561.764-1.399 2.277-3.397 3.139-4.145.189-.164.82-.916 1.402-1.672 1.159-1.504 2.714-2.396 4.178-2.396 1.572 0 2.429 1.661 1.992 3.863s-1.024 4.606-1.803 7.382l-1.177 4.233c-.362 1.31-.768 2.619-.903 2.91-.481 1.04-2.272 5.535-2.314 5.807-.024.153-.577 1.469-1.23 2.924s-1.275 2.943-1.383 3.307-.763 1.852-1.456 3.307-1.483 3.182-1.756 3.836c-.52 1.248-6.913 14.076-7.735 15.52a35.85 35.85 0 0 1-.962 1.578c-.268.408-1.018 1.758-1.667 3s-1.33 2.437-1.514 2.655c-.755.9-2.326 4.288-2.419 5.218-.119 1.185-1.086 5.843-1.278 6.152-.073.119-.017.829.125 1.578.388 2.047 1.985 3.979 4.192 5.073.972.481 1.416.542 2.91.395 2.021-.198 4.606-1.332 6.102-2.676.524-.471 1.406-1.163 1.96-1.536s1.851-1.728 2.884-3.01 2.152-2.569 2.488-2.86c.821-.712 2.808-4.769 3.694-7.541 1.283-4.013 2.03-5.881 2.524-6.303.266-.228.564-.957.662-1.62s.399-1.489.67-1.836.492-.772.492-.945c0-.446 1.592-3.682 1.909-3.881.145-.091.367-.717.493-1.392s.359-1.375.517-1.555c.421-.479 2.638-3.923 2.638-4.097 0-.433 1.563-3.354 2.688-5.023.709-1.052 1.393-2.183 1.52-2.514s.779-1.345 1.451-2.255 1.22-1.754 1.22-1.876c0-.217.63-1.039 1.754-2.286.754-.837 2.549-1.368 3.486-1.03.675.243.709.338.634 1.747-.061 1.138-.348 2.011-1.216 3.692-.625 1.211-1.217 2.528-1.314 2.927s-.533 1.286-.967 1.97-.789 1.349-.789 1.477-.645 1.563-1.432 3.189l-1.885 4.016a95.84 95.84 0 0 1-1.571 3.329c-.615 1.249-1.204 2.618-1.31 3.043s-.34.95-.521 1.169c-.473.572-2.277 3.703-2.277 3.952 0 .115-.36.613-.8 1.106s-1.001 1.312-1.246 1.822-1.242 2.236-2.215 3.836c-1.335 2.196-2.08 3.831-3.035 6.663-1.185 3.513-1.245 3.821-.944 4.825.403 1.346 1.352 2.469 2.18 2.581 1.38.186 2.153.104 2.446-.262.168-.21.648-.462 1.066-.559 1.3-.303 4.636-3.28 5.241-4.678.207-.478.699-.954 1.209-1.169.473-.199.86-.545.86-.768s.298-.48.661-.571.661-.28.661-.42.268-.216.595-.17c.495.07.584.23.528.944-.101 1.289.343 1.043 1.314-.727.479-.873 1.067-1.651 1.307-1.729s.515-.406.61-.728.8-1.122 1.567-1.776 1.654-1.578 1.972-2.051.707-.86.865-.86 1.007-.651 1.886-1.448 2.089-1.707 2.687-2.023c1.46-.772 5.175-2.086 5.899-2.086.32 0 .66-.126.755-.281.116-.188 1.079-.22 2.919-.097l2.746.184.306-.763c.169-.42.364-2.013.435-3.541.117-2.524.029-3.465-.709-7.613-.233-1.312-1.482-2.992-2.492-3.351-.593-.211-.819-.134-1.495.513A7.81 7.81 0 0 0 180.97 55c-.6 1.24-1.108 3.882-.867 4.511.086.225-.001 1.066-.193 1.869-.298 1.243-.481 1.523-1.23 1.88-.654.312-1.066.354-1.605.164-.611-.216-.726-.409-.734-1.236-.005-.539-.154-1.126-.331-1.303s-.322-.652-.322-1.056c0-1.431 1.14-5.93 1.873-7.393 1.201-2.397 3.427-4.226 5.113-4.203a14.89 14.89 0 0 0 1.348-.042c2.129-.214 3.335.51 4.473 2.687.38.727.624 1.323.542 1.323s.029.327.247.728.671 1.621 1.007 2.712c.552 1.795.61 2.482.599 7.194l-.012 5.21 1.07.437 1.864.784 2.117.921c.728.315 1.526.682 1.774.814.547.292.674.115.991-1.385 1.254-5.937 3.765-12.65 6.212-16.609.319-.515.798-1.413 1.066-1.995s.768-1.416 1.113-1.852c.992-1.257 1-1.268 1.656-2.381.888-1.505 3.531-4.007 4.926-4.663.653-.307 1.251-.663 1.331-.792s.547-.234 1.039-.234.978-.134 1.079-.298c.378-.612 4.438-.02 6.803.992 1.194.511 2.267 1.1 2.384 1.308s.378.379.581.379c.693 0 2.91 2.582 3.943 4.592.918 1.787 1.059 2.32 1.279 4.859.282 3.248-.126 9.583-.73 11.318-.202.582-.674 2.13-1.047 3.44-.736 2.581-1.397 4.409-2.765 7.64-.3.71-.546 1.435-.546 1.613s-.227.528-.505.78-.585.776-.681 1.165c-.28 1.126-1.767 4.127-2.16 4.359-.197.116-.358.416-.358.666s-.277.869-.615 1.376-.814 1.427-1.056 2.046c-.407 1.037-3.022 4.532-3.996 5.34-.23.191-.418.495-.418.675s-.65 1.029-1.445 1.886c-2.637 2.843-1.686 3.169 2.636.903 2.575-1.35 4.765-2.757 5.089-3.27.111-.177.5-.512.864-.745s1.225-.974 1.914-1.647 1.356-1.224 1.482-1.224.829-.685 1.562-1.521 2.052-2.295 2.932-3.241c.937-1.007 1.891-2.377 2.305-3.307l1.075-2.333c.203-.41.494-1.527.646-2.482s.511-2.22.796-2.81.519-1.182.519-1.314c0-.3.84-2.126 1.061-2.305.089-.073.311-.847.493-1.72.397-1.91 1.157-3.902 2.369-6.218l1.91-3.704c1.33-2.615 3.595-5.525 4.75-6.102 1.748-.873 2.004-.867 2.905.073.753.786.821.991.7 2.107-.162 1.486-1.326 5.494-2.022 6.966-.275.582-.631 1.495-.79 2.029s-.434 1.091-.611 1.237c-.297.247-1.651 2.979-2.706 5.465-.247.582-.85 1.671-1.34 2.421s-1.018 1.642-1.173 1.984c-.467 1.029-1.152 2.243-1.639 2.907-1.403 1.912-1.924 3.015-3.086 6.536-1.152 3.487-1.263 4.033-1.103 5.401.144 1.231.352 1.709 1.09 2.508 1.27 1.374 1.343 1.414 2.235 1.229.943-.196 1.613-.643 4.763-3.179 3.559-2.866 8.454-7.841 9.649-9.808.282-.465.876-1.032 1.319-1.261s.805-.551.805-.715.298-.689.661-1.166.661-.971.661-1.099 1.017-1.466 2.259-2.975 2.457-3.169 2.698-3.689.881-1.551 1.422-2.291 1.131-1.843 1.313-2.451.49-1.237.685-1.399.354-.41.354-.552c0-.464.869-2.177 1.413-2.786.585-.655 1.491-.755 2.781-.305.805.281.833.342.833 1.818 0 .951-.206 2.015-.546 2.818-1.025 2.421-1.111 2.614-1.583 3.539-.26.509-.589 1.521-.733 2.249-.304 1.542-.732 2.804-1.393 4.105-1.113 2.193-1.573 4.176-1.77 7.64-.331 5.81-.146 7.268 1.098 8.671l.638.741c.441.524 3.089.546 4.073.032a7.24 7.24 0 0 1 1.49-.542c.429-.094 1.419-.774 2.201-1.51s1.897-1.639 2.479-2.007c1.805-1.14 6.896-6.615 7.551-8.121.32-.736.746-1.654.947-2.04s.365-.99.365-1.341c0-.841.698-3.183 1.442-4.836.327-.728.674-1.646.77-2.041s.501-1.229.9-1.852c1.268-1.984 1.381-2.174 1.842-3.118.784-1.605 1.421-2.39 2.478-3.057 1.003-.633 2.707-.863 3.29-.444.373.268.921 1.567.921 2.183 0 1.124-2.19 7.029-3.575 9.638-1.064 2.004-3.445 5.679-3.954 6.101-.482.4-1.467 3.54-1.467 4.676 0 .551-.168 1.45-.374 1.999-.776 2.07-.657 4.766.318 7.229.512 1.294 1.975 3.2 2.667 3.476 1.114.444 2.499.724 2.764.561.134-.083 1.034-.174 1.999-.202 1.433-.042 2.094-.225 3.61-1.002 1.02-.523 2.166-1.03 2.546-1.125.397-.1 2.454-1.921 4.835-4.281 3.753-3.72 5.042-5.214 8.157-9.454.544-.74 1.293-1.714 1.664-2.164a13.21 13.21 0 0 0 1.223-1.852c.301-.569.701-1.213.889-1.432.316-.367 1.03-1.568 1.89-3.175.195-.364.355-.901.355-1.194s.224-1.141.496-1.885.577-1.903.678-2.576.271-1.224.377-1.224.357-.744.557-1.654.481-1.846.625-2.082.175-.652.067-.926c-.173-.442-.296-.379-1.092.56-.493.582-.966 1.369-1.05 1.748s-.415.83-.736 1.002c-.507.271-1.421 1.68-3.161 4.871-.537.984-1.724 2.301-2.075 2.301-.133 0-.242.224-.242.497a1.23 1.23 0 0 1-.397.826c-.218.181-.397.55-.397.819 0 .277-.345.669-.794.9-.437.226-.794.6-.794.833s-.908 1.33-2.018 2.441-2.195 2.434-2.411 2.941c-.586 1.376-5.468 6.077-7.216 6.949-1.815.905-2.821.916-4.48.048-1.651-.863-2.071-1.523-2.543-3.988-.38-1.985-.334-2.719.36-5.783.336-1.483 2.2-7.353 2.437-7.673.107-.146.645-1.396 1.194-2.778s1.091-2.692 1.204-2.91a480.31 480.31 0 0 0 2.106-4.366c1.149-2.401 2.512-4.771 3.448-5.999.852-1.117 1.623-2.328 1.714-2.691.166-.659.807-1.743 3.213-5.428.699-1.071 1.629-2.584 2.065-3.361.792-1.411 3.416-4.491 5.147-6.043.503-.45 1.427-1.314 2.054-1.918 1.746-1.682 4.507-2.6 7.688-2.556 3.09.043 3.764.394 3.764 1.958 0 1.327.389 2.093 1.063 2.093.34 0 .576-.245.696-.72.099-.396.558-1.498 1.019-2.447s.991-2.144 1.179-2.653c.353-.957 1.333-3.118 2.176-4.799.265-.529.483-1.131.483-1.337s.289-.964.642-1.684l2.073-4.351c.787-1.673 1.849-3.584 2.359-4.246s1.257-1.766 1.659-2.454c1.127-1.924 2.798-3.603 3.766-3.784.676-.127.976-.024 1.521.521 1.051 1.051.831 2.344-.773 4.54-.723.99-2.252 3.972-2.252 4.392 0 .172-.457 1.279-1.016 2.461s-1.22 2.763-1.47 3.514-.626 1.509-.836 1.684-.382.424-.382.554c0 .412-2.721 6.691-3.088 7.128-.193.23-.352.505-.352.611 0 .534-2.234 4.712-2.69 5.032-.29.203-.493.589-.452.859.114.746-.281 2.015-.811 2.606-.261.291-.719 1.244-1.018 2.117l-.816 2.381c-.617 1.794-1.112 3.802-1.338 5.424-.132.946-.376 2.196-.543 2.778a39.18 39.18 0 0 0-.535 2.141c-.127.595-.41 1.488-.629 1.984s-.601 1.617-.851 2.49-.554 1.701-.677 1.839-.223.518-.223.844-.11.661-.244.744-.446.775-.691 1.537-.591 1.624-.766 1.915-.592 1.303-.926 2.249-.773 2.095-.974 2.554-.367 1.019-.367 1.245-.301.854-.668 1.396-.729 1.291-.803 1.665a17.28 17.28 0 0 1-.39 1.493c-.14.447-.256 1.161-.257 1.588s-.19 1.132-.42 1.569c-.871 1.652-1.608 14.201-1.045 17.793.17 1.086.322 1.389.699 1.389.505 0 3.224-3.172 3.514-4.101.091-.291.552-1.262 1.025-2.158l1.865-3.548c.553-1.055 1.223-2.194 1.488-2.531s.757-1.3 1.094-2.141 1.007-2.051 1.489-2.691.877-1.28.877-1.424.407-.827.904-1.519c.99-1.378 2.494-4.077 4.261-7.651.391-.791.967-1.781 1.279-2.2.65-.874 3.543-6.287 5.333-9.981.668-1.378 1.318-2.57 1.445-2.649.22-.136 1.251-1.957 2.815-4.971.398-.767 1.12-1.858 1.604-2.423s.88-1.18.88-1.366.744-1.029 1.654-1.873c1.396-1.296 1.807-1.536 2.637-1.538 1.115-.003 2.685 1.16 2.942 2.18.411 1.628 1.454 4.284 1.717 4.372.243.081 2.428-4.007 2.428-4.541 0-.21 3.716-5.757 4.153-6.2.19-.192.345-.432.345-.533s.843-1.066 1.873-2.144c1.798-1.882 1.929-1.965 3.273-2.076 1.163-.096 1.687.021 3.093.692 1.587.757 2.859 1.969 2.886 2.747.006.188.195.818.419 1.4 1.251 3.253 1.684 10.342.796 13.026l-.957 2.923c-.297.914-.789 2.224-1.094 2.91l-.892 2.043c-1.194 2.814-3.768 7.72-4.527 8.629-1.177 1.409-2.523 2.303-4.331 2.877-1.233.392-1.633.415-2.526.147-1.209-.363-2.685-1.661-3.561-3.134-.681-1.146-1.769-1.972-2.123-1.613-.359.364-1.855 4.229-1.855 4.792 0 .578-1.021 5.358-1.21 5.663-.07.113-.187 1.985-.259 4.16-.12 3.585-.079 4.099.437 5.504.626 1.703 1.304 2.588 2.435 3.176.668.347.888.334 2.198-.137 1.537-.553 2.934-1.883 4.39-4.177.401-.632.842-1.149.981-1.149s.322-.219.407-.486.559-.941 1.054-1.497 1.058-1.32 1.252-1.697 1.038-1.877 1.876-3.332 1.658-3.063 1.823-3.572.522-1.242.793-1.628.492-.775.492-.863c0-.182.79-2.029 1.706-3.991l1.546-3.307c1.031-2.206 2.304-5.53 2.304-6.017 0-.173.167-.706.37-1.184a98.99 98.99 0 0 0 .839-2.059c.258-.655.806-1.943 1.217-2.863s.749-1.789.749-1.932.23-.7.511-1.238a12.48 12.48 0 0 0 .819-2.153c.422-1.605 1.584-2.662 2.925-2.662.786 0 1.12.146 1.436.629.631.962.712 1.618.643 5.192l-.029 3.969c.237 4.471.321 14.909.154 19.182-.218 5.582-.261 14.194-.072 14.311.294.182 1.021-.995 1.021-1.654 0-.323.121-.662.269-.753.358-.221.928-1.617 1.155-2.831.101-.54.357-1.313.569-1.72s.386-.895.387-1.086c.003-.424 1.001-3.586 1.478-4.68.191-.437.667-1.925 1.058-3.307.996-3.516 1.73-5.556 1.999-5.556.126 0 .229-.242.229-.538 0-.491.767-3.075 1.294-4.357.12-.291.498-1.422.841-2.514s.697-2.103.787-2.249.49-1.18.89-2.299 1.011-2.341 1.358-2.716.765-1.179.929-1.787c.379-1.409 2.202-5 3.353-6.606.488-.68 1.305-1.484 1.817-1.786 1.244-.734 3.241-.744 4.075-.02.336.291.743.529.904.529 1.035 0 4.977 2.694 7.343 5.018 1.116 1.096 2.788 2.589 3.716 3.316 1.721 1.35 3.799 3.685 4.352 4.887.169.368.743 1.132 1.276 1.697 1.245 1.322 2.253 2.922 2.253 3.578 0 .283.423.864.941 1.29.786.648.912.89.765 1.474-.261 1.04-1.39.955-2.173-.164-.838-1.196-2.32-3.015-4.03-4.944-.8-.903-1.598-1.911-1.772-2.24s-1.127-1.274-2.117-2.1c-1.751-1.461-2.042-1.716-2.594-2.278-.608-.619-1.92-1.565-2.889-2.083-.57-.305-1.106-.654-1.191-.776-.404-.584-4.775-2.422-6.144-2.584l-1.493-.176-.98 1.681c-.539.924-1.258 2.049-1.598 2.499s-.998 1.581-1.463 2.514l-1.341 2.674c-.273.539-.497 1.197-.497 1.462s-.163.718-.362 1.005-.423.939-.496 1.448-.397 1.581-.718 2.381l-1.376 3.572c-.436 1.164-.959 2.474-1.163 2.91s-.555 1.681-.781 2.766-.586 2.166-.8 2.402-.389.679-.389.983-.258 1.128-.574 1.831c-.595 1.326-.844 2.129-2.452 7.893l-1.242 4.233c-.155.437-.369 1.218-.476 1.736a7.55 7.55 0 0 1-.615 1.72c-.513.948-.825 1.77-.77 2.031.081.388-1.258 3.113-1.529 3.113-.154 0-.279.156-.279.347s-.327.651-.728 1.022c-.617.572-.855.639-1.562.445-1.478-.406-2.602-3.335-2.319-6.048.16-1.539.18-1.135-.324-6.615-.114-1.237-.177-2.428-.141-2.646s.128-2.004.205-3.969l.253-4.763c.063-.655.17-5.179.237-10.054.114-8.268.09-8.906-.359-9.497-.265-.348-.609-.554-.766-.457s-.783 1.751-1.392 3.676-1.437 4.214-1.84 5.088-.857 2.004-1.009 2.514c-.562 1.881-1.163 3.342-1.917 4.662-.426.745-.774 1.65-.774 2.01s-.241.933-.536 1.273-.609.924-.697 1.297-.644 1.572-1.234 2.663l-1.722 3.307c-.631 1.285-1.763 3.112-4.233 6.833-1.469 2.213-5.429 6.264-6.122 6.264-.278 0-.574.111-.658.247-.198.32-2.797 1.076-3.7 1.076-.384 0-1.139-.229-1.679-.508-1.225-.634-3.376-2.844-3.627-3.726-.103-.364-.399-1.138-.657-1.72s-.585-1.594-.727-2.249c-.337-1.557-.232-6.351.155-7.074.166-.31.302-1.327.302-2.259 0-2.776 1.411-8.699 3.323-13.95 1.34-3.681 1.552-7.117.62-10.054-.254-.8-.655-2.145-.89-2.989-.678-2.428-1.106-2.318-3.384.872-.963 1.349-3.371 5.295-3.376 5.532-.003.086-.6 1.109-1.329 2.273s-1.399 2.336-1.489 2.604-.522 1.161-.96 1.984l-1.561 2.952a85.99 85.99 0 0 1-1.701 3.043c-.515.873-1.543 2.719-2.284 4.101l-2.66 4.895-1.908 3.464c-.328.596-.887 1.548-1.243 2.117-.567.907-3.569 6.708-4.027 7.78-.205.482-.634 1.204-1.339 2.256-.688 1.026-1.038 1.613-1.733 2.904-.715 1.329-1.877 2.759-3.82 4.701-1.819 1.819-2.57 1.952-3.841.681-.459-.459-1.024-1.123-1.254-1.475-.438-.669-1.037-4.271-1.307-7.868-.213-2.83.427-9.517 1.134-11.849.092-.304-.003-.463-.274-.463-.228 0-.415.177-.415.392 0 .385-.185.627-2.358 3.077-.595.671-1.082 1.286-1.082 1.367 0 .525-6.432 6.966-7.21 7.219-.255.083-.463.296-.463.473 0 .479-2.541 2.288-3.213 2.288a1.73 1.73 0 0 0-.999.376c-.804.723-3.075 1.696-4.386 1.879-.728.101-1.572.34-1.876.531-1.49.934-6.233-.474-8.045-2.388-.509-.538-1.194-1.083-1.521-1.211-.335-.131-.595-.459-.595-.749 0-.284-.149-.677-.331-.873-.804-.867-1.523-2.873-1.777-4.966-.15-1.233-.273-2.394-.273-2.58 0-.647-.801-.33-1.873.742-.594.594-1.435 1.203-1.869 1.355-.448.156-1.068.717-1.434 1.296a5 5 0 0 1-1.769 1.586c-.619.311-1.504.849-1.967 1.196s-.953.631-1.089.631-.54.231-.899.513c-1.552 1.221-5.605 1.573-7.785.676-.732-.301-2.218-1.872-2.218-2.344 0-.099-.286-.623-.636-1.166-1.109-1.72-1.588-8.31-.819-11.263.45-1.728.523-3.615.141-3.615-.141 0-.735.648-1.321 1.441s-1.217 1.537-1.403 1.654-.515.561-.73.986c-.781 1.543-.919 1.74-1.218 1.74-.167 0-.586.38-.929.843s-1.049 1.268-1.567 1.786a20.9 20.9 0 0 0-1.717 2.001c-.941 1.285-3.945 4.365-4.259 4.367-.124.001-.94.63-1.813 1.4-2.298 2.024-4.119 3.272-5.027 3.444-.437.083-1.329.266-1.983.407-2.891.625-5.824-1.778-7.13-5.843-.53-1.651-.471-1.676-4.116 1.792-1.019.969-2.328 2.065-2.91 2.434s-1.394 1.072-1.805 1.562-.87.89-1.02.89-.627.298-1.059.662-1.104.728-1.493.81-.945.28-1.236.442-1.65.631-3.02 1.042c-3.06.92-7.135 1.062-8.569.298-.466-.248-.949-.423-1.073-.388s-.363-.043-.529-.174-.601-.314-.964-.407c-1.198-.307-4.38-3.578-5.31-5.46-.468-.946-.993-1.898-1.166-2.117-.589-.74-.997-5.137-1.03-11.113-.027-4.707-.114-6.074-.416-6.529-.596-.898-4.664-3.007-6.135-3.181-1.2-.142-1.289-.11-1.545.564-.149.393-.272 1.225-.272 1.849 0 .701-.252 1.608-.661 2.378-.364.684-.661 1.658-.661 2.165s-.314 1.541-.699 2.299a20.47 20.47 0 0 0-1.156 2.968c-.545 1.892-1.442 3.72-2.271 4.632-.331.364-.79 1.217-1.019 1.896-.693 2.051-2.081 4.031-5.098 7.269-2.524 2.709-5.279 4.329-7.366 4.329-.87 0-3.905-1.343-4.232-1.873-.078-.126-.538-.418-1.021-.647s-1.128-.649-1.433-.933-.608-.516-.674-.516c-.243 0-2.018-1.851-2.018-2.104 0-.144-.249-.738-.553-1.322-.464-.89-.56-1.583-.595-4.308-.041-3.121-.013-3.3.719-4.621.789-1.424.78-2.304-.022-2.15-.249.048-.517.354-.596.68-.146.603-1.041 1.772-2.591 3.386-.473.492-.86.999-.86 1.126 0 .228-2.596 2.396-3.937 3.288-2.062 1.372-5.74 1.6-7.569.469-1.382-.854-2.396-2.546-2.896-4.83-.088-.4-.299-.728-.47-.728-.356 0-1.795 1.313-1.795 1.638 0 .292-1.874 1.966-3.537 3.158a47.84 47.84 0 0 0-2.284 1.749c-1.106.925-3.774 1.777-6.936 2.215l-2.305.319-1.796-.871c-2.383-1.156-3.411-1.95-4.048-3.129a13.55 13.55 0 0 0-1.077-1.664c-.366-.457-.599-1.236-.698-2.329-.133-1.469-.206-1.633-.694-1.562-.3.044-.93.615-1.399 1.27-1.753 2.446-6.543 7.389-7.172 7.402-.181.004-.657.38-1.058.836s-1.444 1.153-2.317 1.549l-2.778 1.259c-2.575 1.165-7.477.995-10.463-.365-1.622-.738-4.354-2.599-4.354-2.966 0-.113-.218-.441-.485-.727-.741-.796-2.632-4.026-2.987-5.103-.174-.527-.524-1.256-.778-1.62-.507-.725-1.143-5.594-1.082-8.289.035-1.57-.25-1.864-.864-.89-.202.321-.193.588.033.95.274.438.217.544-.439.816-.844.35-2.038 1.507-1.799 1.745.085.085-.133.579-.484 1.096s-.639 1.04-.639 1.16-.357.782-.794 1.47-.794 1.46-.794 1.715-.298.785-.661 1.177-.661.906-.661 1.141-.286.736-.636 1.113-.903 1.21-1.228 1.849-1.051 1.856-1.613 2.703-1.021 1.636-1.021 1.754-.197.377-.438.577-.6.75-.797 1.223-.464.86-.592.86-.43.493-.671 1.096c-.558 1.395-3.982 4.834-5.497 5.522-1.237.561-2.708.669-3.746.274-.364-.139-1.295-1.02-2.068-1.958-1.691-2.054-2.278-3.868-2.458-7.603-.067-1.395-.2-2.741-.296-2.99s-.044-1.131.115-1.961c.301-1.572.493-3.826.727-8.52.076-1.528.254-3.195.395-3.704.34-1.227 1.494-9.746 1.703-12.568a27.69 27.69 0 0 1 .39-2.91c.588-2.855 1.355-7.801 1.6-10.319.142-1.455.378-3.182.524-3.836.263-1.176.391-1.879 1.163-6.413.217-1.272.518-2.76.67-3.307.347-1.25.358-2.635.023-2.842-.373-.23-2.421.768-3.132 1.526-.335.358-.64.935-.677 1.282s-.403 1.317-.812 2.154-.802 2.086-.872 2.775-.309 1.789-.531 2.444-.383 1.599-.358 2.098c.049.952-.499 3.728-1.309 6.634-.264.946-.512 2.137-.552 2.646s-.151 1.045-.246 1.191c-.233.354-.802 2.711-.717 2.97.037.113-.069.681-.236 1.263-.411 1.434-.816 3.078-1.303 5.292-.224 1.019-.52 1.965-.657 2.103s-.249.577-.249.975a4.66 4.66 0 0 1-.25 1.382c-.138.362-.308 1.159-.378 1.771s-.255 1.241-.411 1.396-.283.609-.283 1.007-.141 1.059-.313 1.468c-.39.929-.443 1.165-.699 3.126-.114.873-.457 2.067-.763 2.652s-.637 1.657-.737 2.381c-.387 2.823-1.015 5.542-1.36 5.887-.199.199-.363.86-.364 1.468a9.28 9.28 0 0 1-.313 2.164c-.171.582-.284 1.165-.25 1.295s-.069.606-.227 1.058-.35 1.477-.425 2.277-.202 1.812-.282 2.249c-.394 2.147-.385 4.429.022 5.445.231.576.419 1.385.419 1.797 0 .708.472 1.374 1.764 2.49.969.837 3.427 1.052 5.627.493 1.056-.268 1.998-.595 2.093-.727.271-.375 1.776-1.381 2.185-1.461.203-.04.648.022.989.137.472.16.583.345.467.779-.084.313-.154.775-.156 1.027-.004.55-3.381 3.149-5.041 3.88-1.291.569-4.046.909-4.884.604zm128.691-23.489c1.049-.971 2.463-2.553 3.142-3.515s1.305-1.809 1.391-1.882.318-.549.516-1.058.498-1.105.667-1.323c.569-.734 1.457-2.409 1.457-2.748 0-.185.297-.923.66-1.639s.661-1.553.661-1.861.24-.864.533-1.235a4.18 4.18 0 0 0 .689-1.557c.087-.485.372-1.655.634-2.601.715-2.584 1.16-5.169.974-5.654-.198-.517-.88-.538-4.37-.138-2.926.335-5.67 1.474-7.718 3.202l-1.946 1.599c-1.202.946-1.759 1.503-1.759 1.756 0 .13-.306.313-.681.407-.486.122-.838.528-1.232 1.418-.558 1.261-1.257 2.377-2.125 3.389-.499.582-1.518 2.46-1.518 2.797 0 .108-.28.609-.621 1.112-.839 1.236-1.104 4.167-.529 5.853.223.656.512 1.192.641 1.192s.479.48.778 1.066c.423.829.88 1.226 2.056 1.786.832.396 1.598.853 1.704 1.015s1.05.314 2.141.34l1.95.045zm34.425-.634c0-.146.183-.265.407-.265.569 0 2.431-.98 2.687-1.415.117-.198.482-.502.812-.675.525-.276 1.295-1.396 2.708-3.942.218-.393.493-.757.61-.808.493-.215 1.506-1.417 1.506-1.786 0-.22.344-.84.765-1.377a21.33 21.33 0 0 0 1.499-2.3l1.734-3.119c.55-.988 1.079-2.059 1.177-2.381s.387-.943.643-1.379c.912-1.552 3.707-8.819 3.707-9.636 0-.161.223-.797.496-1.414 1.135-2.568 1.428-4.267 1.459-8.445.033-4.466-.21-5.73-1.544-8.022-1.038-1.784-2.307-2.925-4.452-4.005-4.336-2.184-8.142-.716-12.103 4.667-.803 1.091-1.69 2.52-1.97 3.175s-.725 1.507-.987 1.893-.477.929-.477 1.205-.384 1.092-.853 1.811c-1.174 1.802-3.094 7.34-3.113 8.981-.003.291-.184.87-.401 1.287s-.395 1.224-.395 1.794a6.03 6.03 0 0 1-.379 1.943c-.431 1.033-.285 3.716.238 4.368.415.517.803 1.585 1.346 3.704.753 2.937.91 3.945 1.442 9.233.366 3.644.633 5.261.919 5.577.222.245.403.589.403.764 0 .343.901.787 1.654.814.255.009.463-.102.463-.248zm94.22-13.162c.83-.431 1.596-1.084 1.976-1.687.342-.541.858-1.059 1.147-1.151s.601-.405.694-.697 1.211-1.565 2.484-2.831 2.656-2.896 3.072-3.624 1.37-2.037 2.12-2.91 1.675-2.123 2.055-2.778 1.291-1.844 2.024-2.642 1.333-1.572 1.333-1.72.298-.615.661-1.038.661-.871.661-.996c0-.286 3.114-4.835 3.869-5.652.309-.334.681-.95.827-1.368s.821-1.59 1.501-2.603 1.299-2.139 1.376-2.503.489-1.762.915-3.108c.839-2.655.934-3.979.476-6.66-.375-2.196-.556-2.531-1.776-3.302-.948-.599-1.069-.612-2.738-.298-2 .376-1.899.308-5.015 3.37-1.365 1.342-2.345 2.521-2.345 2.822 0 .285-.097.557-.215.605-.417.171-3.77 4.827-3.928 5.453-.087.348-.441.915-.786 1.26s-.627.867-.627 1.159-.354.935-.786 1.427-1.026 1.454-1.319 2.138a12.03 12.03 0 0 1-1.198 2.116c-.366.48-.666.957-.666 1.061s-.451.866-1.003 1.695-1.46 2.519-2.02 3.756-1.292 2.666-1.627 3.175-.863 1.64-1.173 2.514-.813 2.056-1.119 2.629-.647 1.466-.758 1.984l-.48 2.134-.596 2.646c-.175.8-.492 1.727-.703 2.06-.445.7-.262 3.579.267 4.217.414.498 1.656.261 3.419-.653zm-141.051.462c0-.146-.112-.265-.249-.265s-.323.119-.412.265.022.265.249.265.412-.119.412-.265zM19.119 74.695c.654-.289 1.338-.706 1.52-.925s.819-.545 1.416-.724 1.511-.765 2.038-1.307 1.302-1.068 1.728-1.173 1.814-1.065 3.084-2.134 2.382-1.943 2.472-1.943c.429 0 7.522-6.635 7.522-7.035 0-.099.268-.436.595-.749s.893-.933 1.257-1.378.996-1.024 1.404-1.287 1.081-.967 1.495-1.563 1.419-1.764 2.234-2.594 1.482-1.608 1.482-1.727.327-.576.728-1.014a42.04 42.04 0 0 0 1.651-1.977c.508-.649 1.133-1.411 1.389-1.693s.465-.623.465-.758.405-.797.899-1.471c.791-1.079.933-1.527 1.18-3.74.539-4.818.603-11.246.15-15.081-.232-1.965-.469-3.724-.527-3.911-.184-.598-2.256.66-3.751 2.278-.763.825-1.388 1.643-1.389 1.816s-.221.471-.488.661-.654.664-.86 1.052c-.698 1.319-4.66 7.133-5.93 8.703-.735.908-1.328 1.811-2.197 3.344-.19.335-.45.609-.577.609s-.314.268-.413.595-.447.953-.772 1.389-.804 1.21-1.065 1.72-.556.986-.658 1.058c-.389.278-2.123 2.986-2.123 3.316 0 .19-.446.817-.992 1.392-.986 1.039-2.117 2.829-3.546 5.611-.411.8-.903 1.574-1.093 1.72s-.511.681-.712 1.191-.686 1.343-1.078 1.852-1.049 1.581-1.461 2.381-.814 1.515-.894 1.587c-.166.151-.591.892-1.39 2.424-.304.584-.715 1.124-.912 1.2s-.358.266-.358.423-.223.531-.496.832c-.603.664-1.885 2.963-1.885 3.379 0 .165-.155.488-.344.718-.427.519-1.041 2.881-.835 3.215.228.369.722.301 2.036-.28zm105.231-7.201c.005-.248.293-.734.639-1.081s.704-.863.794-1.148.642-1.406 1.225-2.491c2.367-4.402 6.328-12.504 6.207-12.699-.071-.115-.039-.248.071-.297.386-.171 4.276-8.403 4.949-10.471.248-.762.553-1.449.678-1.526s.417-.793.649-1.591.511-1.45.621-1.45.362-.566.56-1.257.456-1.38.571-1.53c.226-.292 1.545-4.582 1.747-5.68a7.42 7.42 0 0 1 .336-1.191c.118-.291.339-1.005.491-1.587l.688-2.636c.655-2.511-.009-2.595-1.963-.248-.655.787-1.511 1.741-1.903 2.122s-.969 1.243-1.281 1.918-.902 1.583-1.308 2.02-.828 1.091-.936 1.455-.419.977-.691 1.364-.494.788-.494.893c0 .347-1.413 3.419-1.902 4.134-.264.386-.48.932-.48 1.213s-.085.595-.189.699c-.279.279-1.134 2.612-1.134 3.095 0 .229-.28.68-.621 1.001-.376.353-.754 1.177-.957 2.084-.185.825-.749 2.399-1.253 3.497s-1.157 2.764-1.45 3.7-.754 2.116-1.025 2.622-.427 1.025-.347 1.155-.052.652-.293 1.16-.613 1.544-.826 2.302c-1.047 3.719-1.782 6.577-2.123 8.256-.207 1.018-.519 2.245-.693 2.726-.262.726-.25.916.071 1.115.446.276 1.556-.886 1.572-1.645zm245.217.464c.543-.357 1.239-.863 1.547-1.124.754-.641 3.065-4.188 3.585-5.503l1.775-4.291c.746-1.778 1.356-3.542 1.356-3.92s.142-.947.316-1.265c.192-.351.331-1.929.355-4.018.032-2.751-.065-3.784-.483-5.159-.773-2.544-1.203-3.175-2.163-3.172-1.183.004-3.912 1.825-4.458 2.973-.244.513-.81 1.326-1.26 1.807-.816.874-1.849 2.701-2.232 3.948-.112.364-.425.945-.696 1.292s-.493.896-.493 1.22-.315 1.052-.699 1.618c-1.17 1.723-2.798 6.409-2.664 7.672.231 2.186 3.835 8.571 4.837 8.571.214 0 .833-.292 1.376-.648zM99.981 63.774c1.452-.866 1.95-1.357 2.818-2.779.58-.95 1.267-1.951 1.526-2.226s.541-.85.627-1.278.32-.916.521-1.082a1.16 1.16 0 0 0 .365-.784c0-.265.108-.548.239-.629 1.032-.638 3.969-8.203 3.989-10.274.002-.258-.487-1.002-1.087-1.654-.984-1.068-1.21-1.185-2.29-1.185-1.988 0-6.115 2.652-7.104 4.566-.444.858-.459.879-1.627 2.313-.415.509-1.026 1.376-1.358 1.925s-.742 1.145-.912 1.323c-.511.537-1.227 1.74-1.227 2.062 0 .166-.369.768-.82 1.338-1.236 1.561-1.133 2.542.769 7.31.703 1.762.935 2.056 1.771 2.245.944.213 2.001-.118 3.8-1.191z"/></svg>